# 3ds Max Wavefront OBJ Exporter v0.97b - (c)2007 guruware
# 创建的文件:02.03.2016 17:01:03

#
# object Sphere001
#

v  -3.7924 -52.2804 -44.4443
v  25.5639 -52.2804 -52.3103
v  25.5639 -18.3826 -65.9847
v  -10.6296 -18.3826 -56.2866
v  -25.2828 -52.2804 -22.9540
v  -37.1251 -18.3826 -29.7911
v  -33.1488 -52.2804 6.4024
v  -46.8231 -18.3826 6.4024
v  -25.2828 -52.2804 35.7587
v  -37.1251 -18.3826 42.5959
v  -3.7925 -52.2804 57.2490
v  -10.6296 -18.3826 69.0914
v  25.5639 -52.2804 65.1151
v  25.5639 -18.3826 78.7894
v  54.9202 -52.2804 57.2491
v  61.7574 -18.3826 69.0914
v  76.4106 -52.2804 35.7588
v  88.2529 -18.3826 42.5959
v  84.2766 -52.2804 6.4024
v  97.9509 -18.3826 6.4024
v  76.4106 -52.2804 -22.9539
v  88.2530 -18.3826 -29.7911
v  54.9203 -52.2804 -44.4443
v  61.7575 -18.3826 -56.2866
v  8.6150 -77.0953 -22.9540
v  25.5639 -77.0953 -27.4954
v  -3.7924 -77.0953 -10.5465
v  -8.3339 -77.0953 6.4024
v  -3.7924 -77.0953 23.3513
v  8.6150 -77.0953 35.7587
v  25.5639 -77.0953 40.3002
v  42.5128 -77.0953 35.7587
v  54.9202 -77.0953 23.3513
v  59.4617 -77.0953 6.4024
v  54.9203 -77.0953 -10.5465
v  42.5128 -77.0953 -22.9540
v  25.5639 -86.1782 6.4024
# 37 vertices

vn 0.4218 0.5370 0.7305
vn -0.0000 0.5370 0.8436
vn -0.0000 0.3741 0.9274
vn 0.4637 0.3741 0.8031
vn 0.7305 0.5370 0.4218
vn 0.8031 0.3741 0.4637
vn 0.8436 0.5370 0.0000
vn 0.9274 0.3741 0.0000
vn 0.7305 0.5370 -0.4218
vn 0.8031 0.3741 -0.4637
vn 0.4218 0.5370 -0.7305
vn 0.4637 0.3741 -0.8031
vn 0.0000 0.5370 -0.8436
vn 0.0000 0.3741 -0.9274
vn -0.4218 0.5370 -0.7305
vn -0.4637 0.3741 -0.8031
vn -0.7305 0.5370 -0.4218
vn -0.8031 0.3741 -0.4637
vn -0.8436 0.5370 -0.0000
vn -0.9274 0.3741 -0.0000
vn -0.7305 0.5370 0.4218
vn -0.8031 0.3741 0.4637
vn -0.4218 0.5370 0.7305
vn -0.4637 0.3741 0.8031
vn 0.2654 0.8474 0.4598
vn -0.0000 0.8474 0.5309
vn 0.4598 0.8474 0.2654
vn 0.5309 0.8474 0.0000
vn 0.4598 0.8474 -0.2654
vn 0.2655 0.8474 -0.4598
vn 0.0000 0.8474 -0.5309
vn -0.2654 0.8474 -0.4598
vn -0.4598 0.8474 -0.2655
vn -0.5309 0.8474 -0.0000
vn -0.4598 0.8474 0.2654
vn -0.2655 0.8474 0.4598
vn 0.0000 1.0000 0.0000
# 37 vertex normals

vt -0.8772 1.2574 0.0000
vt -1.1526 1.2574 0.0000
vt -1.1526 2.0005 0.0000
vt -0.8772 2.0005 0.0000
vt -0.6018 1.2574 0.0000
vt -0.6018 2.0005 0.0000
vt -0.3263 1.2574 0.0000
vt -0.3263 2.0005 0.0000
vt -0.0509 1.2574 0.0000
vt -0.0509 2.0005 0.0000
vt 0.2246 1.2574 0.0000
vt 0.2246 2.0005 0.0000
vt 0.5000 1.2574 0.0000
vt 0.5000 2.0005 0.0000
vt 0.7754 1.2574 0.0000
vt 0.7754 2.0005 0.0000
vt 1.0509 1.2574 0.0000
vt 1.0509 2.0005 0.0000
vt 1.3263 1.2574 0.0000
vt 1.3263 2.0005 0.0000
vt 1.6018 1.2574 0.0000
vt 1.6018 2.0005 0.0000
vt 1.8772 1.2574 0.0000
vt 1.8772 2.0005 0.0000
vt 2.1526 1.2574 0.0000
vt 2.1526 2.0005 0.0000
vt -0.8772 0.5142 0.0000
vt -1.1526 0.5142 0.0000
vt -0.6018 0.5142 0.0000
vt -0.3263 0.5142 0.0000
vt -0.0509 0.5142 0.0000
vt 0.2246 0.5142 0.0000
vt 0.5000 0.5142 0.0000
vt 0.7754 0.5142 0.0000
vt 1.0509 0.5142 0.0000
vt 1.3263 0.5142 0.0000
vt 1.6018 0.5142 0.0000
vt 1.8772 0.5142 0.0000
vt 2.1526 0.5142 0.0000
vt -1.1526 -0.2289 0.0000
vt -0.8772 -0.2289 0.0000
vt -0.6018 -0.2289 0.0000
vt -0.3263 -0.2289 0.0000
vt -0.0509 -0.2289 0.0000
vt 0.2246 -0.2289 0.0000
vt 0.5000 -0.2289 0.0000
vt 0.7754 -0.2289 0.0000
vt 1.0509 -0.2289 0.0000
vt 1.3263 -0.2289 0.0000
vt 1.6018 -0.2289 0.0000
vt 1.8772 -0.2289 0.0000
# 51 texture coords

g Sphere001
s 1
f 1/1/1 2/2/2 3/3/3 4/4/4 
f 5/5/5 1/1/1 4/4/4 6/6/6 
f 7/7/7 5/5/5 6/6/6 8/8/8 
f 9/9/9 7/7/7 8/8/8 10/10/10 
f 11/11/11 9/9/9 10/10/10 12/12/12 
f 13/13/13 11/11/11 12/12/12 14/14/14 
f 15/15/15 13/13/13 14/14/14 16/16/16 
f 17/17/17 15/15/15 16/16/16 18/18/18 
f 19/19/19 17/17/17 18/18/18 20/20/20 
f 21/21/21 19/19/19 20/20/20 22/22/22 
f 23/23/23 21/21/21 22/22/22 24/24/24 
f 2/25/2 23/23/23 24/24/24 3/26/3 
f 25/27/25 26/28/26 2/2/2 1/1/1 
f 27/29/27 25/27/25 1/1/1 5/5/5 
f 28/30/28 27/29/27 5/5/5 7/7/7 
f 29/31/29 28/30/28 7/7/7 9/9/9 
f 30/32/30 29/31/29 9/9/9 11/11/11 
f 31/33/31 30/32/30 11/11/11 13/13/13 
f 32/34/32 31/33/31 13/13/13 15/15/15 
f 33/35/33 32/34/32 15/15/15 17/17/17 
f 34/36/34 33/35/33 17/17/17 19/19/19 
f 35/37/35 34/36/34 19/19/19 21/21/21 
f 36/38/36 35/37/35 21/21/21 23/23/23 
f 26/39/26 36/38/36 23/23/23 2/25/2 
f 37/40/37 26/28/26 25/27/25 
f 37/41/37 25/27/25 27/29/27 
f 37/42/37 27/29/27 28/30/28 
f 37/43/37 28/30/28 29/31/29 
f 37/44/37 29/31/29 30/32/30 
f 37/45/37 30/32/30 31/33/31 
f 37/46/37 31/33/31 32/34/32 
f 37/47/37 32/34/32 33/35/33 
f 37/48/37 33/35/33 34/36/34 
f 37/49/37 34/36/34 35/37/35 
f 37/50/37 35/37/35 36/38/36 
f 37/51/37 36/38/36 26/39/26 
# 24 polygons - 12 triangles

